<svg width="32" height="32" viewBox="0 0 32 32" fill="none" xmlns="http://www.w3.org/2000/svg">
<path fill-rule="evenodd" clip-rule="evenodd" d="M26.5 9.22201L15.8286 4L5.50001 9.3838L8.34688 10.9149C9.75367 8.53268 12.7132 6.95174 16.0071 6.95174C19.2566 6.95174 22.1807 8.49031 23.6096 10.8189L26.5 9.22201ZM23.0328 11.1376C21.7353 9.039 19.0764 7.60039 16.0071 7.60039C12.8944 7.60039 10.2038 9.07997 8.92722 11.227L11.3914 12.5523C12.2965 11.1216 14.0694 10.195 16.0071 10.195C17.917 10.195 19.6668 11.0951 20.5833 12.4909L23.0328 11.1376ZM8.60656 11.8472L11.0648 13.1805C10.8685 13.6534 10.7607 14.1669 10.7607 14.7096C10.7607 15.9427 11.2824 17.3452 12.1469 18.5315C12.985 19.6815 14.189 20.6886 15.665 21.1491L15.665 23.7161C11.1339 22.2889 8.13747 17.5154 8.13747 14.0436C8.13747 13.2723 8.303 12.5326 8.60656 11.8472ZM11.4165 14.7096C11.4165 16.755 13.1017 19.5533 15.665 20.4646L15.665 18.0858C15.0475 17.8397 14.5752 17.352 14.2595 16.8432C13.9207 16.2971 13.7118 15.6473 13.7118 15.0598C13.7118 14.9156 13.7254 14.7745 13.7514 14.6377L11.6471 13.4964C11.4975 13.8779 11.4165 14.2858 11.4165 14.7096ZM16.3208 23.725L16.3208 21.1579C17.8097 20.7016 19.0239 19.6889 19.8674 18.5315C20.7318 17.3452 21.2536 15.9427 21.2536 14.7096C21.2536 14.1621 21.1438 13.6442 20.9442 13.1679L23.4022 11.8347C23.7092 12.5237 23.8768 13.2676 23.8768 14.0436C23.8768 17.5227 20.8678 22.3089 16.3208 23.725ZM20.5978 14.7096C20.5978 14.281 20.515 13.8688 20.3621 13.4836L18.2601 14.6237C18.2879 14.7649 18.3024 14.9107 18.3024 15.0598C18.3024 15.6473 18.0936 16.2971 17.7547 16.8432C17.4342 17.3598 16.9522 17.8547 16.3208 18.097L16.3208 20.4747C18.9 19.5741 20.5978 16.7625 20.5978 14.7096ZM17.9936 13.9217L20.0061 12.8098C19.2182 11.636 17.7225 10.8436 16.0071 10.8436C14.2652 10.8436 12.7498 11.6607 11.972 12.8645L14.001 13.9558C14.3932 13.2601 15.1446 12.7896 16.0071 12.7896C16.8554 12.7896 17.5963 13.2448 17.9936 13.9217ZM8.02576 11.5321L5.5 10.1622L5.5 22.1622L15.665 28L15.665 24.3945C13.21 23.6777 11.1877 22.0526 9.77481 20.1676C8.33506 18.2468 7.48166 15.9935 7.48166 14.0436C7.48166 13.1517 7.67495 12.3069 8.02576 11.5321ZM16.3208 24.4028C18.7886 23.6902 20.8211 22.0598 22.2395 20.1676C23.6792 18.2468 24.5326 15.9935 24.5326 14.0436C24.5326 13.1469 24.3372 12.2979 23.9829 11.5197L26.4857 10.1622L26.4857 22.1622L16.3208 28L16.3208 24.4028ZM14.3676 15.0598C14.3676 15.8471 14.8743 16.9002 15.665 17.3638C15.7738 17.4276 15.8881 17.4803 16.0071 17.5195C16.1158 17.4837 16.2205 17.4367 16.3208 17.3802C17.1278 16.9254 17.6466 15.8565 17.6466 15.0598C17.6466 15.0577 17.6466 15.0556 17.6466 15.0534C17.6465 15.0215 17.6454 14.9897 17.6435 14.9582C17.6271 14.6965 17.548 14.4516 17.4208 14.2381C17.1358 13.7594 16.6094 13.4382 16.0071 13.4382C15.3933 13.4382 14.8583 13.7718 14.5773 14.2657C14.4572 14.4768 14.3835 14.7171 14.3699 14.9732C14.3684 15.0019 14.3676 15.0308 14.3676 15.0598Z" fill="white"/>
</svg>
